<?xml version="1.0" encoding="UTF-8"?>
<svg version="1.1" xmlns="http://www.w3.org/2000/svg" width="1069" height="559">
<path d="M0 0 C3.00197464 1.80118478 4.45166366 2.90332732 6 6 C7.2138003 17.32880282 0.34672928 25.32865308 -6.38671875 33.765625 C-7.25722759 34.84422233 -8.12830349 35.92236229 -9 37 C-9.76957031 37.96421875 -10.53914063 38.9284375 -11.33203125 39.921875 C-15.61820383 45.23642875 -20.05747742 50.37896476 -24.6640625 55.41796875 C-25.95702763 56.84714926 -27.24282872 58.28330018 -28.49707031 59.74658203 C-33.99231089 66.14919112 -39.96257736 72.01846081 -45.97265625 77.93359375 C-50.31376224 82.23289133 -54.47056178 86.59896998 -58.44921875 91.23535156 C-60.58823375 93.66935667 -62.90638011 95.88921538 -65.25 98.125 C-71.4934557 104.2524547 -76.82507271 110.95989112 -82 118 C-82.4213623 118.56638184 -82.84272461 119.13276367 -83.27685547 119.71630859 C-108.13317499 153.54070279 -117.01243127 194.77625707 -117.19923019 236.00854492 C-117.21133 238.45433726 -117.23085583 240.89997608 -117.25234985 243.34570312 C-117.31289912 250.29063442 -117.36738848 257.23554732 -117.40136719 264.18066406 C-117.55422809 293.80280011 -118.9376732 322.89456538 -125 352 C-125.26707764 353.29695801 -125.26707764 353.29695801 -125.53955078 354.62011719 C-146.52706739 453.2228855 -146.52706739 453.2228855 -178 476 C-181.5625 477 -181.5625 477 -185 477 C-188.82057743 474.41852876 -189.92505869 471.38245304 -191 467 C-193.99716424 448.74141323 -189.86867761 430.40493699 -186.23022461 412.54022217 C-183.41589621 398.69364697 -180.62850296 384.846086 -178.5 370.875 C-178.35256348 369.91408447 -178.20512695 368.95316895 -178.05322266 367.96313477 C-174.5007589 343.61368299 -172.3681112 314.8918258 -186.8125 293.5 C-190.94649176 288.5142813 -194.79169166 286.44440723 -201.21484375 285.5546875 C-219.48130179 284.65793502 -235.96233705 294.02043054 -252.03662109 301.61743164 C-285.45898288 317.31694607 -326.53446125 316.57936064 -361.6953125 305.875 C-371.33077556 302.12924454 -381.49587453 296.02342994 -387 287 C-388.52778228 282.48472267 -388.63044692 279.31571531 -386.5625 275 C-382.65354945 271.94911177 -378.4399735 271.70668913 -373.63598633 272.28417969 C-371.11612533 272.75704747 -368.62288897 273.29738708 -366.125 273.875 C-336.21698368 280.5777239 -304.07104754 276.31281628 -277.71875 260.11962891 C-272.54725566 256.75081171 -267.76151088 252.91694121 -263 249 C-262.32453125 248.47792969 -261.6490625 247.95585937 -260.953125 247.41796875 C-244.23510309 234.11257058 -230.88826222 210.1204175 -228 189 C-226.08228529 168.40853831 -234.16007567 149.619845 -246.7421875 133.7109375 C-257.39756614 120.91710917 -269.11568818 108.51521817 -282.22265625 98.20703125 C-285.58143167 95.53796218 -288.81885671 92.74437376 -292.0625 89.9375 C-296.82939074 85.82762373 -301.65482974 81.81804539 -306.58984375 77.91015625 C-311.10696132 74.33013924 -315.56220475 70.67769857 -320 67 C-320.52577637 66.5673584 -321.05155273 66.1347168 -321.59326172 65.68896484 C-328.93266461 59.62880795 -335.95108084 53.28743471 -342.75 46.625 C-343.44182373 45.95911865 -344.13364746 45.2932373 -344.84643555 44.60717773 C-349.6133995 39.8581145 -351.71255485 36.2768747 -352.3125 29.4375 C-351.95083081 25.45913888 -350.84177194 22.84177194 -348 20 C-330.11473683 16.86014269 -311.24675118 32.7453867 -297.375 42.125 C-254.73298113 70.88134562 -203.04365269 88.00282856 -151.55078125 78 C-114.65810783 70.18724396 -80.82228452 52.4874784 -50.65478516 30.20166016 C-48.91856736 28.94086582 -47.15771827 27.723107 -45.38671875 26.51171875 C-38.75019815 21.94622578 -33.040263 17.25773837 -27.453125 11.40234375 C-19.13087182 3.25236651 -11.78058343 -1.29173064 0 0 Z " fill="#A8CF45" transform="translate(388,81)"/>
<path d="M0 0 C1.77697266 -0.0309375 1.77697266 -0.0309375 3.58984375 -0.0625 C4.73324219 -0.06765625 5.87664063 -0.0728125 7.0546875 -0.078125 C8.62065674 -0.09214355 8.62065674 -0.09214355 10.21826172 -0.10644531 C13.84401936 0.33817136 16.52409292 1.64909292 19.125 4.25 C19.28541193 7.35085221 19.38463402 10.43187579 19.44140625 13.53515625 C19.46218735 14.46597519 19.48296844 15.39679413 19.50437927 16.3558197 C19.56997931 19.34130182 19.62880802 22.32687484 19.6875 25.3125 C19.7306753 27.33138976 19.77428925 29.3502702 19.81835938 31.36914062 C19.92567129 36.32933297 20.02690888 41.28961709 20.125 46.25 C20.99294189 45.53444946 20.99294189 45.53444946 21.87841797 44.80444336 C32.59187508 36.18344105 43.44547415 33.90806453 57.125 35.25 C74.74541011 37.94918952 88.87912703 46.30040812 99.53125 60.74609375 C110.01889608 77.22300831 112.83779012 96.47224283 109.46875 115.61328125 C105.43370954 132.36217766 95.75248555 146.94573625 81.125 156.25 C68.09216693 163.34838581 53.69354577 166.86956055 38.93359375 163.52734375 C33.15993503 161.54390327 28.15608407 158.66476295 23.125 155.25 C21.46139922 154.24490786 19.79625722 153.24230897 18.125 152.25 C17.87105469 152.80429687 17.61710938 153.35859375 17.35546875 153.9296875 C17.01128906 154.65414062 16.66710937 155.37859375 16.3125 156.125 C15.97605469 156.84429688 15.63960937 157.56359375 15.29296875 158.3046875 C14.125 160.25 14.125 160.25 11.125 162.25 C8.55297852 162.50878906 8.55297852 162.50878906 5.50390625 162.515625 C4.40369141 162.51820313 3.30347656 162.52078125 2.16992188 162.5234375 C1.02072266 162.51570312 -0.12847656 162.50796875 -1.3125 162.5 C-2.45783203 162.50773438 -3.60316406 162.51546875 -4.78320312 162.5234375 C-5.88470703 162.52085937 -6.98621094 162.51828125 -8.12109375 162.515625 C-9.12841553 162.51336914 -10.1357373 162.51111328 -11.17358398 162.50878906 C-13.93083511 162.24465113 -15.56586496 161.75300689 -17.875 160.25 C-19.24866871 157.50266257 -19.00728044 155.3042213 -19.01544189 152.22793579 C-19.02115204 150.94360153 -19.02686218 149.65926727 -19.03274536 148.33601379 C-19.03399078 146.90451059 -19.03511586 145.47300729 -19.03613281 144.04150391 C-19.04075994 142.54032773 -19.04578446 141.03915274 -19.05117798 139.53797913 C-19.06431371 135.45324896 -19.07074916 131.36853524 -19.07518864 127.28378725 C-19.07811733 124.73324009 -19.08222174 122.18269745 -19.08669281 119.63215256 C-19.10037052 111.65621576 -19.11003597 103.68028925 -19.1138947 95.70434153 C-19.11837698 86.48951441 -19.13593158 77.27483551 -19.1648953 68.06005347 C-19.18649279 60.94238435 -19.19659794 53.824757 -19.19793582 46.70705545 C-19.19898519 42.4535677 -19.20492103 38.20021923 -19.22275543 33.9467659 C-19.23920292 29.94619128 -19.24140792 25.94586114 -19.23261642 21.94526482 C-19.23184427 20.47628437 -19.2362122 19.00729097 -19.24607468 17.53834343 C-19.25874166 15.53427913 -19.25114483 13.53011715 -19.24249268 11.52603149 C-19.24395924 10.40404169 -19.2454258 9.28205189 -19.2469368 8.12606239 C-18.82938269 4.89725665 -18.15687472 3.53971112 -15.875 1.25 C-10.75071138 -0.45809621 -5.36427073 0.02319685 0 0 Z M23.125 80.25 C17.90601938 88.41389562 15.08586547 96.04397419 16.6875 105.6875 C18.91509022 114.08492894 23.56933557 120.82112658 30.640625 125.83984375 C38.00302354 130.01881525 45.90079359 131.348144 54.125 129.25 C62.09460044 126.39275066 67.1851926 122.37628916 71.375 115.0703125 C75.51444187 106.30274465 75.49801025 96.53735016 72.5625 87.375 C69.32449661 79.66059894 64.57626139 74.35526258 56.921875 70.94140625 C44.62019354 66.20793317 31.49760594 70.24590126 23.125 80.25 Z " fill="#29ADE3" transform="translate(622.875,394.75)"/>
<path d="M0 0 C0.69463348 -0.00511093 1.38926697 -0.01022186 2.10494995 -0.01548767 C4.41128066 -0.02943203 6.71731365 -0.02842153 9.02368164 -0.02612305 C10.63115042 -0.030011 12.23861817 -0.03434587 13.84608459 -0.03910828 C17.22473466 -0.04658352 20.60328031 -0.04627249 23.98193359 -0.04101562 C28.28561246 -0.03525826 32.58885571 -0.05205423 36.89246273 -0.0753603 C40.21875967 -0.09019719 43.54495458 -0.09095524 46.87127876 -0.08785057 C48.45590633 -0.0883601 50.04054018 -0.09352773 51.62513542 -0.10366249 C68.48118043 -0.19812945 82.42364678 2.91046835 94.98852539 14.82543945 C98.50599469 18.64110251 100.98043528 22.6224769 103.24633789 27.2746582 C103.65883789 28.07000977 104.07133789 28.86536133 104.49633789 29.68481445 C109.06325388 39.94451809 108.86697628 53.17157762 105.68383789 63.8371582 C102.31172337 72.33868635 96.52412919 80.63196539 89.24633789 86.2746582 C87.5889334 86.96402936 85.9228811 87.63323395 84.24633789 88.2746582 C86.47474728 92.63600699 88.70688915 96.99541886 90.94290161 101.35287476 C91.72651271 102.8801402 92.50961683 104.40766588 93.29220581 105.93545532 C98.15633871 115.42445158 103.0345366 124.88866785 108.55249023 134.02026367 C110.8450692 137.94735714 111.68659111 140.72537489 111.24633789 145.2746582 C107.99525271 146.90020079 104.41737883 146.45906846 100.84399414 146.4777832 C100.01048935 146.48348328 99.17698456 146.48918335 98.31822205 146.49505615 C96.55379508 146.50450864 94.78935043 146.51104112 93.02490234 146.51489258 C90.32301154 146.52460724 87.62187849 146.55563125 84.92016602 146.5871582 C83.20727992 146.59368734 81.49438837 146.59893816 79.78149414 146.6027832 C78.97204849 146.61513 78.16260284 146.62747681 77.32862854 146.64019775 C71.66050887 146.61764048 71.66050887 146.61764048 69.60169983 144.91270447 C67.73623795 142.65816804 66.52943938 140.24762649 65.20727539 137.63793945 C64.63058105 136.5099292 64.05388672 135.38191895 63.4597168 134.21972656 C63.15914368 133.62578094 62.85857056 133.03183533 62.54888916 132.41989136 C60.99640058 129.35235495 59.42698537 126.29354387 57.85571289 123.2355957 C57.54650909 122.63329636 57.2373053 122.03099701 56.91873169 121.41044617 C54.01245398 115.77369738 50.93614259 110.2445284 47.73608398 104.77001953 C45.24633789 100.4714579 45.24633789 100.4714579 45.24633789 98.2746582 C40.29633789 98.2746582 35.34633789 98.2746582 30.24633789 98.2746582 C30.26204834 99.62213135 30.27775879 100.96960449 30.29394531 102.35791016 C30.34818803 107.35052528 30.38266746 112.3431143 30.41113281 117.3359375 C30.42623233 119.49809141 30.4467136 121.66021463 30.47265625 123.82226562 C30.50898806 126.92756721 30.52605251 130.03246435 30.53930664 133.13793945 C30.5547905 134.10677567 30.57027435 135.07561188 30.58622742 136.07380676 C30.58645401 136.97451401 30.5866806 137.87522125 30.58691406 138.80322266 C30.5935759 139.59598099 30.60023773 140.38873932 30.60710144 141.20552063 C30.14869969 143.83465622 29.38047179 144.70684164 27.24633789 146.2746582 C24.6118577 146.56062747 22.21874997 146.67152249 19.58618164 146.63793945 C18.46766563 146.63868721 18.46766563 146.63868721 17.32655334 146.63945007 C15.75218029 146.63711181 14.17780334 146.62739776 12.60351562 146.61083984 C10.18919611 146.58721064 7.77597829 146.59028476 5.36157227 146.59692383 C3.83226879 146.59134816 2.30296997 146.58423899 0.77368164 146.57543945 C-0.3122805 146.57680656 -0.3122805 146.57680656 -1.42018127 146.57820129 C-6.52261648 146.50570383 -6.52261648 146.50570383 -8.75366211 144.2746582 C-9.00534439 141.81648254 -9.00534439 141.81648254 -9.00762939 138.65673828 C-9.01326904 137.4620694 -9.01890869 136.26740051 -9.02471924 135.03652954 C-9.02067078 133.71905731 -9.01662231 132.40158508 -9.01245117 131.04418945 C-9.01516006 129.64814064 -9.01872042 128.25209325 -9.02307129 126.85604858 C-9.03220976 123.05859771 -9.02864508 119.26125517 -9.02231312 115.46380234 C-9.01726064 111.4955592 -9.02194247 107.52732553 -9.02508545 103.55908203 C-9.0287273 96.89427011 -9.02392028 90.22950247 -9.0144043 83.56469727 C-9.00351931 75.8518497 -9.00704474 68.13910786 -9.01805711 60.42626286 C-9.02712377 53.81222406 -9.02841831 47.19821715 -9.02317977 40.58417416 C-9.02005664 36.63036808 -9.01966009 32.67661175 -9.02625275 28.72280884 C-9.03201659 25.00625264 -9.0280471 21.28983316 -9.01646423 17.57329178 C-9.01254431 15.5531254 -9.01851148 13.53294751 -9.02471924 11.51278687 C-9.01625977 9.72078354 -9.01625977 9.72078354 -9.00762939 7.89257812 C-9.00687534 6.84986252 -9.00612129 5.80714691 -9.00534439 4.73283386 C-8.44125796 -0.77658667 -4.59404877 0.01680931 0 0 Z M30.24633789 31.2746582 C30.24633789 42.8246582 30.24633789 54.3746582 30.24633789 66.2746582 C35.16540039 66.3674707 35.16540039 66.3674707 40.18383789 66.4621582 C41.19824951 66.48947021 42.21266113 66.51678223 43.2578125 66.54492188 C50.17871486 66.60738126 56.8254125 66.00148279 62.40258789 61.5559082 C62.84602539 60.9680957 63.28946289 60.3802832 63.74633789 59.7746582 C64.21040039 59.1868457 64.67446289 58.5990332 65.15258789 57.9934082 C67.8697741 53.72354415 67.69798499 49.15077412 67.24633789 44.2746582 C65.45494299 39.09951739 62.65496014 36.44886622 58.24633789 33.2746582 C54.59956495 31.52381323 51.75726854 31.03431261 47.72680664 31.0793457 C46.34464966 31.08683838 46.34464966 31.08683838 44.93457031 31.09448242 C43.20170776 31.12179443 43.20170776 31.12179443 41.43383789 31.1496582 C35.89602539 31.2115332 35.89602539 31.2115332 30.24633789 31.2746582 Z " fill="#29ADE3" transform="translate(342.753662109375,410.725341796875)"/>
<path d="M0 0 C8.59865362 6.98413849 10.26558102 19.01896232 11.5390625 29.37890625 C11.66639245 31.08566943 11.76884446 32.79440012 11.8515625 34.50390625 C11.90441406 35.50679687 11.95726562 36.5096875 12.01171875 37.54296875 C12.58933741 59.79384398 9.07670562 82.61974781 0.4765625 103.19140625 C0.22100586 103.8148291 -0.03455078 104.43825195 -0.29785156 105.08056641 C-1.95308136 108.77246584 -3.80140212 111.18810124 -6.71948242 113.99731445 C-11.20798352 119.07182118 -11.13952192 123.67133184 -11.05078125 130.22265625 C-11.06921837 131.87038025 -11.06921837 131.87038025 -11.08802795 133.5513916 C-11.11964675 137.03625132 -11.10351138 140.51898229 -11.0859375 144.00390625 C-11.09905282 146.37632166 -11.11529582 148.74872198 -11.13476562 151.12109375 C-11.17552416 156.91568041 -11.17715372 162.70926953 -11.1484375 168.50390625 C-9.24358608 167.88651984 -7.34022821 167.26452423 -5.4375 166.640625 C-4.37740723 166.29475342 -3.31731445 165.94888184 -2.22509766 165.5925293 C15.14473558 159.44651387 25.92470259 144.48363812 34.34375 128.8046875 C35.8515625 126.50390625 35.8515625 126.50390625 38.8515625 125.50390625 C38.8107959 124.92423096 38.7700293 124.34455566 38.72802734 123.74731445 C38.5489227 121.10433215 38.38758988 118.46054897 38.2265625 115.81640625 C38.16210938 114.90439453 38.09765625 113.99238281 38.03125 113.05273438 C37.52273677 104.31266318 37.52273677 104.31266318 39.8515625 100.50390625 C43.60203732 98.00358971 45.41012516 97.96787071 49.8515625 98.50390625 C52.42468641 100.1636837 53.42167547 100.89852927 54.8515625 103.50390625 C55.62293552 107.75476496 55.59349331 111.97375745 55.6015625 116.28515625 C55.62702148 117.53139771 55.65248047 118.77763916 55.67871094 120.06164551 C55.7731545 124.71721784 55.82428306 129.37278867 55.87255859 134.0289917 C55.92223401 138.59430027 56.00831419 143.15806279 56.1015625 147.72265625 C56.10494629 149.53062683 56.10494629 149.53062683 56.10839844 151.37512207 C56.02194105 158.11653926 56.02194105 158.11653926 59.23046875 163.72070312 C65.12622975 167.73175364 70.89933428 168.17299288 77.8515625 167.50390625 C82.58684753 166.55832671 85.90278876 165.45267999 89.3515625 162.00390625 C91.58073865 158.28861266 91.97768504 155.52010258 91.9934082 151.26977539 C92.00044266 150.20179214 92.00747711 149.1338089 92.01472473 148.03346252 C92.02097115 146.30373451 92.02097115 146.30373451 92.02734375 144.5390625 C92.0505354 142.10611108 92.07465246 139.67316833 92.09960938 137.24023438 C92.13478274 133.39748268 92.16410206 129.5550516 92.17749023 125.7121582 C92.19292623 122.00823081 92.23310309 118.30524295 92.27734375 114.6015625 C92.27543533 113.45043472 92.27352692 112.29930695 92.27156067 111.11329651 C92.28805161 110.0421611 92.30454254 108.9710257 92.3215332 107.86743164 C92.33033257 106.45537193 92.33033257 106.45537193 92.33930969 105.01478577 C93.01111577 101.72183337 94.21183068 100.53167037 96.8515625 98.50390625 C102.26983173 97.72986779 102.26983173 97.72986779 104.8515625 98.50390625 C107.96059058 101.06194739 109.65793382 102.57431019 110.49079895 106.5728302 C110.5007917 108.28825264 110.5007917 108.28825264 110.51098633 110.03833008 C110.53062943 111.3393013 110.55027252 112.64027252 110.57051086 113.98066711 C110.5670679 115.39075863 110.56308291 116.80084892 110.55859375 118.2109375 C110.57171552 119.66112845 110.58702124 121.11130115 110.60441589 122.56144714 C110.64422404 126.36731632 110.65445351 130.17270696 110.65844727 133.97875977 C110.6677868 137.8668465 110.70520533 141.75465299 110.74023438 145.64257812 C110.8047673 153.26302328 110.83804236 160.8831817 110.8515625 168.50390625 C112.91152773 167.91288611 114.96819261 167.31035644 117.0234375 166.703125 C118.1690918 166.36885498 119.31474609 166.03458496 120.49511719 165.69018555 C134.72213848 160.66188351 144.01941874 147.71180066 151.64697266 135.38354492 C152.8515625 133.50390625 152.8515625 133.50390625 154.25537109 131.6340332 C158.27930665 126.03640836 158.38690295 121.56793804 157.9765625 114.81640625 C157.39932464 103.63827304 157.39932464 103.63827304 160.8515625 99.50390625 C163.37456166 97.58990689 164.65914929 97.49989764 167.8515625 97.56640625 C171.79398907 98.79841455 172.71304209 99.96885866 174.8515625 103.50390625 C175.45497058 106.79584109 175.45648041 110.04642467 175.4609375 113.38671875 C175.47747375 114.35560028 175.49401001 115.32448181 175.51104736 116.32272339 C175.55949422 119.42484588 175.58080569 122.52648769 175.6015625 125.62890625 C175.62975224 127.66148348 175.65968381 129.69403734 175.69140625 131.7265625 C175.8678736 143.98511169 175.88404779 156.24432031 175.8515625 168.50390625 C185.26852632 165.28298133 193.45795042 162.44895191 200.8515625 155.50390625 C201.42648437 155.01792969 202.00140625 154.53195312 202.59375 154.03125 C210.27600138 147.11014334 215.50425581 137.37760625 220.8515625 128.62890625 C222.8515625 125.50390625 222.8515625 125.50390625 224.8515625 124.50390625 C227.78577256 124.21995044 230.00255084 124.00842596 232.8515625 124.50390625 C235.77159272 126.98593194 236.73681545 128.46088495 237.15625 132.2734375 C235.87224237 145.88721066 219.71579313 163.09126809 209.8515625 171.50390625 C198.89666178 179.67871132 187.43219811 184.25178663 173.8515625 185.19140625 C173.15289063 185.25134766 172.45421875 185.31128906 171.734375 185.37304688 C167.60657741 185.65731973 164.44982918 185.65360601 160.8515625 183.50390625 C158.91126481 180.42912925 158.56303469 177.89944248 158.4375 174.30078125 C158.37949219 172.83125 158.37949219 172.83125 158.3203125 171.33203125 C158.27390625 169.80835938 158.27390625 169.80835938 158.2265625 168.25390625 C158.18789063 167.22265625 158.14921875 166.19140625 158.109375 165.12890625 C158.01524576 162.58741685 157.92961271 160.04593192 157.8515625 157.50390625 C156.86929688 158.64666016 156.86929688 158.64666016 155.8671875 159.8125 C143.33327554 174.11073673 128.82554506 184.84508298 109.30078125 186.1328125 C108.57503906 186.17277344 107.84929687 186.21273437 107.1015625 186.25390625 C106.36035156 186.30933594 105.61914062 186.36476563 104.85546875 186.421875 C97.71294875 186.84504046 97.71294875 186.84504046 94.8515625 184.50390625 C94.1015625 182.37890625 94.1015625 182.37890625 93.8515625 180.50390625 C92.86542969 180.93703125 92.86542969 180.93703125 91.859375 181.37890625 C80.33271934 185.87711334 66.72567933 186.80478825 55.18359375 181.76953125 C49.06546281 178.44913858 44.02625389 174.85328903 40.8515625 168.50390625 C39.67706876 164.53808322 38.7153367 160.54794 37.8515625 156.50390625 C37.13613281 157.33792969 36.42070313 158.17195312 35.68359375 159.03125 C24.79753305 171.44076756 10.99451504 183.38844206 -6.25634766 184.65917969 C-8.74210961 184.78177076 -11.22256719 184.83721231 -13.7109375 184.87890625 C-14.56107422 184.91628906 -15.41121094 184.95367187 -16.28710938 184.9921875 C-22.45139024 185.07921264 -22.45139024 185.07921264 -25.67578125 182.41796875 C-29.00769548 175.82484403 -28.29142859 168.14759327 -28.27783203 160.92944336 C-28.27958435 159.78001755 -28.28133667 158.63059174 -28.28314209 157.44633484 C-28.28754424 153.64129119 -28.28462231 149.83629414 -28.28125 146.03125 C-28.28192493 143.35217737 -28.28289577 140.6731061 -28.28414917 137.99403381 C-28.28596911 132.35758978 -28.28357728 126.72115884 -28.27880859 121.0847168 C-28.27403446 115.3780023 -28.27393597 109.67131402 -28.27880859 103.96459961 C-28.32313077 50.14915359 -28.32313077 50.14915359 -27.87643051 28.42193794 C-27.84483112 26.84272059 -27.81756808 25.263409 -27.79516983 23.68403435 C-27.52536766 5.88083641 -27.52536766 5.88083641 -21.7109375 0.06640625 C-15.14799323 -3.93538904 -6.63938099 -3.7958214 0 0 Z M-10.1484375 15.50390625 C-10.94051436 19.6847519 -11.27064187 23.62376517 -11.26196289 27.87646484 C-11.26188736 29.11729828 -11.26181183 30.35813171 -11.26173401 31.63656616 C-11.25662863 32.97515911 -11.25141265 34.31375164 -11.24609375 35.65234375 C-11.24422656 37.03382313 -11.24280408 38.41530317 -11.24180603 39.79678345 C-11.23800452 43.41678728 -11.22819466 47.03675042 -11.21710205 50.65673828 C-11.20683685 54.35709076 -11.2022975 58.05744986 -11.19726562 61.7578125 C-11.18657008 69.00652889 -11.16952235 76.25521185 -11.1484375 83.50390625 C-9.11821188 79.70774474 -8.32524348 75.96286514 -7.5859375 71.75390625 C-7.46025391 71.07585937 -7.33457031 70.3978125 -7.20507812 69.69921875 C-5.53298107 60.48955331 -4.93980867 51.614134 -4.8984375 42.25390625 C-4.8778125 41.10277344 -4.8571875 39.95164062 -4.8359375 38.765625 C-4.80129746 31.08419632 -5.41984333 23.75380942 -8.1484375 16.50390625 C-8.8084375 16.17390625 -9.4684375 15.84390625 -10.1484375 15.50390625 Z " fill="#29ADE3" transform="translate(831.1484375,160.49609375)"/>
<path d="M0 0 C1.26904175 0.032146 1.26904175 0.032146 2.5637207 0.06494141 C7.62410758 0.33748267 10.65868228 0.97323438 14.25 4.875 C15.3125 8.3125 15.3125 8.3125 15.25 11.875 C13.6875 14.75 13.6875 14.75 11.25 16.875 C6.63091646 18.07712742 2.1355347 17.8821342 -2.59155273 17.7578125 C-24.19037031 17.24663989 -43.25095342 22.33716084 -59.75 36.875 C-60.55695313 37.52855469 -61.36390625 38.18210938 -62.1953125 38.85546875 C-80.11117774 53.8949336 -89.83364586 77.4721129 -92.52734375 100.35546875 C-93.72990476 119.36437166 -88.93696365 136.3499024 -76.5625 151.0625 C-65.86723808 162.45411454 -49.93214009 169.39910231 -34.3125 170.2109375 C-11.49561731 170.65988366 10.11157571 164.01025755 26.99609375 148.15625 C38.46374854 136.54947288 43.48465741 121.62823411 43.625 105.5 C43.46343371 86.85928876 37.94936076 70.39278201 25.15625 56.62109375 C14.91395184 46.84266779 1.60085838 41.98527706 -12.5 41.5625 C-28.02460416 42.2225109 -41.25951964 48.77871731 -51.9375 60 C-64.76974816 75.35662484 -70.80198122 93.98476247 -69.75 113.875 C-68.41807862 124.04500986 -65.21709056 133.45703415 -57.1875 140.25 C-52.76702083 143.3024392 -47.8816796 144.48937488 -42.703125 145.72265625 C-39.11952979 147.12101681 -37.80300788 148.6635091 -35.75 151.875 C-35.12804069 155.60675586 -35.49580231 157.36660462 -37.1875 160.75 C-40.39395495 163.40901142 -42.12276599 163.54016036 -46.19140625 163.29296875 C-58.21596719 161.32865116 -69.26338844 154.43529623 -76.75 144.875 C-87.11045232 128.03666968 -89.94178293 107.81776605 -85.71875 88.4765625 C-80.1290812 66.97340687 -68.02165745 46.42468601 -48.73681641 34.67675781 C-31.86208394 24.81293862 -12.36189373 21.71930302 6.75 26.4375 C25.58049955 31.59876553 40.8153895 44.44296862 50.44604492 61.21264648 C54.64337881 68.82851777 57.30631553 76.37549841 59.25 84.875 C59.51151855 86.01098633 59.51151855 86.01098633 59.77832031 87.16992188 C63.83027081 110.40781602 59.34215442 133.35709747 46.26953125 152.82421875 C30.86968916 172.89626842 6.69635692 183.91613932 -17.94287109 187.1640625 C-40.08818792 189.64409798 -62.98337125 184.85300306 -80.9375 171.125 C-96.68275 157.773028 -107.93205796 138.74397845 -109.75 117.875 C-111.59866501 88.2568866 -103.52214139 58.47173302 -83.75 35.875 C-83.1828125 35.153125 -82.615625 34.43125 -82.03125 33.6875 C-66.34879975 14.42835058 -41.70825855 2.93201506 -17.36279297 0.2734375 C-11.57071308 -0.21825463 -5.80622192 -0.19972262 0 0 Z " fill="#29ADE3" transform="translate(444.75,160.125)"/>
<path d="M0 0 C12.25449694 10.41894462 19.15991434 24.00444908 21.3125 39.8125 C22.20811022 53.41458027 22.20811022 53.41458027 19.3125 59.8125 C15.72710252 62.41939222 11.76104274 62.08116838 7.51464844 62.03955078 C6.73377869 62.03984283 5.95290894 62.04013489 5.14837646 62.04043579 C2.57276212 62.0390448 -0.00256132 62.02349452 -2.578125 62.0078125 C-4.36602622 62.00408155 -6.1539295 62.00123496 -7.9418335 61.99923706 C-12.64365297 61.99160707 -17.34534856 61.971964 -22.04711914 61.9498291 C-26.84649988 61.92935704 -31.64590067 61.92023243 -36.4453125 61.91015625 C-45.85942938 61.88871753 -55.27345438 61.8545892 -64.6875 61.8125 C-63.80723944 63.73636845 -62.90756309 65.65135958 -62 67.5625 C-61.50113281 68.62984375 -61.00226562 69.6971875 -60.48828125 70.796875 C-56.70088857 77.13932 -50.60257608 79.92218632 -43.6875 81.8125 C-31.89622038 83.40376581 -22.13911333 79.77312392 -12.6484375 73.0234375 C-9.79475404 71.2612027 -7.93947091 71.0734157 -4.6875 71.8125 C1.28008328 75.48485894 6.39148487 82.03476888 10.3125 87.8125 C10.95460269 91.21564423 11.11813583 93.52231509 9.234375 96.5390625 C-0.65203602 107.47403227 -17.42420487 114.08763447 -31.84375 115.015625 C-52.53201927 115.30564747 -69.22566114 108.64356902 -84.375 94.6875 C-96.95847586 81.58535041 -102.2917423 64.04206978 -101.96484375 46.1796875 C-101.14800122 27.96531834 -92.50811093 12.13828997 -79.5625 -0.375 C-56.14089504 -20.2551939 -23.43656752 -17.97873673 0 0 Z M-60.5 28.4375 C-62.31714667 30.88468411 -62.31714667 30.88468411 -62.6875 33.8125 C-47.1775 33.8125 -31.6675 33.8125 -15.6875 33.8125 C-18.8746912 25.844522 -23.10024224 21.2704539 -30.97265625 17.6953125 C-42.71306605 13.87756773 -53.37792943 18.82867294 -60.5 28.4375 Z " fill="#29ADE3" transform="translate(849.6875,444.1875)"/>
<path d="M0 0 C11.48221958 9.75252624 20.40733107 23.19079638 22.8125 38.3125 C23.10608865 42.25441688 23.13738728 46.17345783 23.125 50.125 C23.14916992 51.64963867 23.14916992 51.64963867 23.17382812 53.20507812 C23.18438693 69.77183857 16.23795014 86.00461709 4.6484375 97.84375 C-3.18083525 104.65931526 -12.21310248 110.2833625 -22.1875 113.3125 C-22.91453125 113.53550781 -23.6415625 113.75851562 -24.390625 113.98828125 C-41.38347019 118.23649255 -60.24835163 115.59673393 -75.2355957 106.65161133 C-90.10656948 97.1941092 -100.70082752 82.90394326 -104.79711914 65.6394043 C-107.99468627 46.57998444 -104.68351981 28.39331233 -94.1875 12.3125 C-83.82592476 -1.85610115 -69.21094507 -9.83496196 -52.2109375 -13.29296875 C-33.34925664 -15.75424752 -15.31294512 -11.50235048 0 0 Z M-60.7734375 27.55859375 C-67.59907194 36.0246431 -70.18098051 45.67397957 -69.1875 56.3125 C-67.10863694 64.75223211 -63.70056034 72.17917159 -56.375 77.125 C-48.88856736 81.3570692 -41.61403966 82.29314701 -33.1875 80.3125 C-26.17516213 77.39657821 -20.72606622 73.0859931 -17.1875 66.3125 C-13.18717142 56.03028663 -12.94901277 46.52340106 -17.1875 36.3125 C-20.68305662 29.36620159 -25.24587787 24.84641672 -32.1875 21.3125 C-42.21343372 18.0374956 -52.94911309 20.58663988 -60.7734375 27.55859375 Z " fill="#29ADE3" transform="translate(562.1875,443.6875)"/>
<path d="M0 0 C3.57131944 2.79494565 4.71573447 4.43969811 5.52734375 8.89453125 C5.95099506 13.60112323 6.02599918 18.27681577 6 23 C11.19885298 23.08745734 16.33518413 23.16552074 21.5 22.5 C33.93684211 20.97894737 33.93684211 20.97894737 39.8125 22.9375 C45.99314046 28.764961 49.5061085 35.67861398 50.17016602 44.17797852 C50.23316696 46.51819583 50.22502688 48.84676107 50.1875 51.1875 C50.18105469 52.03666992 50.17460938 52.88583984 50.16796875 53.76074219 C50.05389673 63.51746462 49.54765705 73.25952824 49 83 C58.66626051 78.43975665 67.66446767 73.7904726 76 67 C76.82757812 66.33613281 77.65515625 65.67226563 78.5078125 64.98828125 C84.21062228 60.15251308 88.76250089 54.79606192 93.15820312 48.78466797 C95.80241917 45.23088136 98.18909914 43.18231075 102 41 C102.92694784 39.11299903 103.84934825 37.22342817 104.734375 35.31640625 C109.74549046 26.14482765 117.37192261 20.64414661 127 17 C139.69072572 13.75725936 150.81352195 16.95325511 162 23 C162.928125 21.5459375 162.928125 21.5459375 163.875 20.0625 C166 17 166 17 168 16 C174.26519337 15.4198895 174.26519337 15.4198895 177.375 17.875 C180.06956596 21.39866318 180.14288366 23.51207525 180.20532227 27.91845703 C180.22526749 29.15959259 180.24521271 30.40072815 180.26576233 31.67947388 C180.2827466 33.0389188 180.29962541 34.39836505 180.31640625 35.7578125 C180.33697581 37.14501567 180.35797228 38.53221257 180.37937927 39.91940308 C180.43459981 43.57227505 180.48400911 47.22520359 180.53222656 50.87817383 C180.58244175 54.60503174 180.63812771 58.33180741 180.69335938 62.05859375 C180.80094071 69.37232621 180.90238568 76.68612701 181 84 C182.88641449 83.08153168 184.76996689 82.15718394 186.65234375 81.23046875 C188.22616821 80.45932739 188.22616821 80.45932739 189.83178711 79.67260742 C203.14381908 72.64473264 213.4191642 61.95353758 221.74047852 49.59521484 C223.6813763 46.72471848 225.07302264 44.95131824 228 43 C230.875 42.5625 230.875 42.5625 234 43 C237.14978831 45.3281044 238.70976955 46.86546277 239.6875 50.6875 C236.32808707 66.8737623 218.60408785 82.13509898 205.578125 90.82421875 C194.45328732 97.76629265 181.5452693 105.16810174 168 103 C165.47394296 100.71451982 164.48931355 98.9786271 163 96 C162.19175781 96.42152344 161.38351562 96.84304688 160.55078125 97.27734375 C159.48214844 97.82519531 158.41351562 98.37304688 157.3125 98.9375 C156.25675781 99.48277344 155.20101562 100.02804687 154.11328125 100.58984375 C143.94307292 105.19642494 131.23653631 103.80460326 121 100 C110.0268589 94.50487006 104.573875 86.03211799 100 75 C99.34594958 73.66043281 98.68394098 72.32455538 98 71 C97.30777344 71.67804688 96.61554688 72.35609375 95.90234375 73.0546875 C80.84488809 87.50273077 60.63309033 101.62440119 39.10546875 102.59375 C35.73271277 101.6426203 33.71650078 99.98540215 32 97 C31.31228587 92.85885028 31.46703323 88.77225522 31.58203125 84.5859375 C31.59384933 83.37934479 31.60566742 82.17275208 31.61784363 80.92959595 C31.65904731 77.07732396 31.73393848 73.2266765 31.8125 69.375 C31.87514641 65.51636517 31.93063348 61.65786918 31.97502136 57.79898071 C32.00429289 55.39823349 32.04507203 52.99759413 32.0983429 50.59725952 C32.11463242 49.51248322 32.13092194 48.42770691 32.14770508 47.31005859 C32.16722733 46.35473236 32.18674957 45.39940613 32.2068634 44.41513062 C32.17281312 41.73741173 32.17281312 41.73741173 30 39 C28.3603125 39.24556641 28.3603125 39.24556641 26.6875 39.49609375 C21.45545742 40.15009907 16.26506338 40.10970402 11 40.0625 C10.03449219 40.05798828 9.06898438 40.05347656 8.07421875 40.04882812 C5.71607911 40.03715417 3.35807398 40.02078021 1 40 C0.82114258 40.57935303 0.64228516 41.15870605 0.45800781 41.75561523 C-2.69413555 51.63307871 -7.81564473 62.28882868 -16 69 C-19.625 70.25 -19.625 70.25 -23 70 C-25.875 68.5 -25.875 68.5 -28 66 C-29.10313147 62.20798556 -29.58310955 60.10437415 -27.7109375 56.55859375 C-26.09127245 54.1364919 -24.38300197 51.82278993 -22.625 49.5 C-16.11130215 40.10364437 -13.37281022 31.96790928 -14.52270508 20.68798828 C-15.22456574 13.80050774 -14.4196637 8.1139442 -11 2 C-7.55929711 -0.54866881 -4.14956101 -0.58239453 0 0 Z M124 38 C117.00351664 45.32190119 114.56797559 53.3340109 114.73046875 63.24609375 C115.42794782 70.37251036 117.62593079 76.22984821 123 81.0625 C128.99531662 85.85172753 134.65433331 87.40772034 142.3046875 86.82421875 C149.11275715 85.6581307 154.09683392 82.43369389 158.5390625 77.1796875 C163.22295227 70.41406894 164.84748498 62.40967258 163.59765625 54.29296875 C161.61142858 46.67260507 157.86623775 40.07643058 151 36 C140.90013438 31.52979668 133.06903573 30.74477141 124 38 Z " fill="#29ADE3" transform="translate(532,243)"/>
<path d="M0 0 C0.75796875 -0.00515625 1.5159375 -0.0103125 2.296875 -0.015625 C4.25 0.25 4.25 0.25 6.25 2.25 C6.42488254 4.68744897 6.48177405 7.0093608 6.4453125 9.4453125 C6.4424826 10.15275604 6.43965271 10.86019958 6.43673706 11.58908081 C6.42553137 13.8512251 6.40042679 16.11297515 6.375 18.375 C6.36497067 19.90754637 6.35584474 21.44009894 6.34765625 22.97265625 C6.32559086 26.73192301 6.29105896 30.49089464 6.25 34.25 C7.44238281 34.21519531 8.63476562 34.18039062 9.86328125 34.14453125 C11.42967342 34.11639247 12.99608081 34.0890924 14.5625 34.0625 C15.74102539 34.02479492 15.74102539 34.02479492 16.94335938 33.98632812 C17.70068359 33.97666016 18.45800781 33.96699219 19.23828125 33.95703125 C20.28302612 33.93346558 20.28302612 33.93346558 21.34887695 33.90942383 C23.85599514 34.35856083 24.69373684 35.26969641 26.25 37.25 C27.81776025 41.95328074 27.47579311 46.69889772 27.5 51.625 C27.520625 52.6665625 27.54125 53.708125 27.5625 54.78125 C27.6109895 64.26094681 27.6109895 64.26094681 24.25 68.25 C23.25 69.25 23.25 69.25 19.43359375 69.34765625 C17.85153318 69.34098089 16.26948841 69.32901875 14.6875 69.3125 C13.88119141 69.30798828 13.07488281 69.30347656 12.24414062 69.29882812 C10.24606244 69.28700518 8.24802217 69.26906914 6.25 69.25 C6.25666183 70.32075272 6.26332367 71.39150543 6.27018738 72.4947052 C6.33094224 82.57429745 6.37594556 92.65385266 6.40543652 102.73358631 C6.42110769 107.91597422 6.44237248 113.09821459 6.47631836 118.28051758 C6.50886 123.27959841 6.52684207 128.27853713 6.53463173 133.27771568 C6.54018459 135.18715338 6.55102768 137.0965831 6.56719017 139.00596046 C6.58889546 141.67577692 6.59196984 144.34500242 6.59057617 147.01489258 C6.601362 147.80827026 6.61214783 148.60164795 6.6232605 149.41906738 C6.59293461 154.77053164 6.59293461 154.77053164 4.85371399 157.20219421 C0.02897803 160.35449337 -5.46474831 159.51216259 -11.07128906 159.54516602 C-13.11070992 159.56237939 -15.14850883 159.60626835 -17.1875 159.65039062 C-18.47398437 159.65876953 -19.76046875 159.66714844 -21.0859375 159.67578125 C-22.85783447 159.69765503 -22.85783447 159.69765503 -24.66552734 159.7199707 C-28.53421314 159.13051209 -29.44116698 158.38497906 -31.75 155.25 C-32.12400179 152.33747474 -32.2570566 149.80955535 -32.20410156 146.90136719 C-32.20468567 146.06197601 -32.20526978 145.22258484 -32.20587158 144.35775757 C-32.20308786 141.58704071 -32.17198277 138.81740359 -32.140625 136.046875 C-32.13316362 134.12445666 -32.1274702 132.20203071 -32.12347412 130.27960205 C-32.10820967 125.2225236 -32.06892075 120.1659055 -32.0246582 115.10900879 C-31.98372306 109.94773587 -31.96546685 104.7863885 -31.9453125 99.625 C-31.90242739 89.49979787 -31.83416613 79.37493723 -31.75 69.25 C-32.72582031 69.27320313 -33.70164062 69.29640625 -34.70703125 69.3203125 C-36.61548828 69.34738281 -36.61548828 69.34738281 -38.5625 69.375 C-39.82707031 69.39820313 -41.09164062 69.42140625 -42.39453125 69.4453125 C-45.75 69.25 -45.75 69.25 -48.75 67.25 C-50.46485055 62.10544836 -50.01899673 56.69820446 -50.0625 51.3125 C-50.09150391 50.11947266 -50.12050781 48.92644531 -50.15039062 47.69726562 C-50.15876953 46.55064453 -50.16714844 45.40402344 -50.17578125 44.22265625 C-50.19036377 43.17343994 -50.20494629 42.12422363 -50.2199707 41.04321289 C-49.62963524 37.53462687 -48.56169603 36.37060893 -45.75 34.25 C-42.296875 33.859375 -42.296875 33.859375 -38.5 34 C-37.23671875 34.03609375 -35.9734375 34.0721875 -34.671875 34.109375 C-33.70765625 34.15578125 -32.7434375 34.2021875 -31.75 34.25 C-31.76571045 33.59926514 -31.7814209 32.94853027 -31.79760742 32.27807617 C-31.85994649 29.33130576 -31.89898684 26.38467402 -31.9375 23.4375 C-31.96263672 22.41333984 -31.98777344 21.38917969 -32.01367188 20.33398438 C-32.02333984 19.35107422 -32.03300781 18.36816406 -32.04296875 17.35546875 C-32.0586792 16.44949951 -32.07438965 15.54353027 -32.09057617 14.61010742 C-31.75 12.25 -31.75 12.25 -30.48291016 10.54052734 C-28.60733376 9.14375405 -26.91662221 8.32291304 -24.73046875 7.49609375 C-23.95509766 7.19896484 -23.17972656 6.90183594 -22.38085938 6.59570312 C-21.57455078 6.29599609 -20.76824219 5.99628906 -19.9375 5.6875 C-19.14279297 5.38392578 -18.34808594 5.08035156 -17.52929688 4.76757812 C-15.27526055 3.91182736 -13.01493334 3.07641579 -10.75 2.25 C-9.66847656 1.85425781 -8.58695313 1.45851563 -7.47265625 1.05078125 C-4.84642228 0.27835949 -2.72598938 -0.01879993 0 0 Z " fill="#29ADE3" transform="translate(1041.75,397.75)"/>
<path d="M0 0 C1.6895681 1.1332469 3.35742256 2.29965495 5 3.5 C6.36125 4.44359375 6.36125 4.44359375 7.75 5.40625 C10 7.5 10 7.5 10.97265625 9.890625 C11.05570822 17.81615548 3.8521685 27.43818725 -1 33.5 C-4.88628185 36.09085456 -6.36569912 36.16204298 -11 35.5 C-13.70760404 33.86710649 -16.17489289 32.07232759 -18.66796875 30.12890625 C-23.28313331 26.90524859 -28.53037212 26.87824658 -34 27.5 C-40.75838979 29.42571179 -44.36507028 33.6891435 -48 39.5 C-49.496509 42.49301801 -49.13303888 45.2260155 -49.1418457 48.56420898 C-49.14532013 49.29119995 -49.14879456 50.01819092 -49.15237427 50.76721191 C-49.15973304 52.34795299 -49.16507778 53.92870441 -49.16866493 55.50945854 C-49.17582075 58.00989586 -49.19147963 60.51013583 -49.21000671 63.01051331 C-49.26252457 70.12034431 -49.31047886 77.230067 -49.32592773 84.34008789 C-49.33599277 88.68682091 -49.36527746 93.03305761 -49.40724754 97.3795948 C-49.41958237 99.03777378 -49.42467428 100.69602278 -49.42244911 102.35424614 C-49.42010371 104.67217113 -49.44220097 106.98866458 -49.4699707 109.30639648 C-49.47583694 110.62606918 -49.48170319 111.94574188 -49.48774719 113.30540466 C-50 116.5 -50 116.5 -51.84332275 118.42434692 C-56.31484319 120.6545391 -61.52269043 119.97769198 -66.41723633 119.94604492 C-68.42828902 119.93753896 -70.43649366 119.96630173 -72.44726562 119.99804688 C-74.35862305 119.99708008 -74.35862305 119.99708008 -76.30859375 119.99609375 C-77.47189209 119.99794678 -78.63519043 119.9997998 -79.83374023 120.00170898 C-83.91433201 119.35511973 -85.25150669 118.61813747 -88 115.5 C-88.76911278 111.83651024 -88.68252122 108.20845113 -88.64697266 104.47680664 C-88.65573425 103.35283981 -88.66449585 102.22887299 -88.67352295 101.07084656 C-88.69555459 97.35022536 -88.68094837 93.63078983 -88.6640625 89.91015625 C-88.66742975 87.32710034 -88.6722816 84.74404597 -88.67855835 82.16099548 C-88.68593507 76.7446134 -88.67567504 71.32867774 -88.65185547 65.91235352 C-88.62465771 59.65572919 -88.63344837 53.39991987 -88.6609875 47.14331537 C-88.68643877 41.11934429 -88.68370996 35.09577099 -88.66907883 29.07174492 C-88.66574136 26.51086755 -88.66984376 23.94996941 -88.68147659 21.38911629 C-88.69416617 17.80971218 -88.67483065 14.23187518 -88.64697266 10.65258789 C-88.65709381 9.59216278 -88.66721497 8.53173767 -88.67764282 7.43917847 C-88.57403818 0.25889557 -88.57403818 0.25889557 -85.61155701 -3.65759277 C-82.78646216 -5.65064717 -81.47154097 -6.13189453 -78.05859375 -6.12890625 C-77.14529297 -6.13083984 -76.23199219 -6.13277344 -75.29101562 -6.13476562 C-74.34935547 -6.11091797 -73.40769531 -6.08707031 -72.4375 -6.0625 C-71.01920898 -6.07893555 -71.01920898 -6.07893555 -69.57226562 -6.09570312 C-62.76591392 -6.02355099 -62.76591392 -6.02355099 -59.45703125 -3.76171875 C-57.9572097 -1.43357752 -57.03049133 0.59632948 -56.25 3.25 C-56.00765625 4.04921875 -55.7653125 4.8484375 -55.515625 5.671875 C-55.34546875 6.27515625 -55.1753125 6.8784375 -55 7.5 C-54.01 6.63375 -53.02 5.7675 -52 4.875 C-35.60809605 -9.07625829 -19.38364933 -12.08230152 0 0 Z " fill="#29ADE3" transform="translate(978,437.5)"/>
<path d="M0 0 C11.55942186 6.93975948 19.37977117 16.2679028 23.19921875 29.3203125 C25.58040001 42.06404183 23.66317752 54.55946767 16.98828125 65.72265625 C10.56575716 75.04793686 2.89475566 82.7421133 -8.30078125 85.7578125 C-18.04052359 87.41819037 -27.19783089 84.95761011 -35.40625 79.62890625 C-46.1314996 71.59713839 -53.745147 59.70291096 -55.80078125 46.3203125 C-56.84966872 32.42255348 -53.72452927 20.62350457 -44.76171875 9.875 C-33.53463208 -2.14552036 -15.40198098 -7.47872082 0 0 Z " fill="#A8CF45" transform="translate(228.80078125,46.6796875)"/>
<path d="M0 0 C2 2 2 2 2.125 4.625 C2.08375 5.40875 2.0425 6.1925 2 7 C-6.71491062 10.71084654 -15.51673005 14.13569075 -24.390625 17.4453125 C-25.79101376 17.96952269 -27.19132585 18.49393774 -28.59156799 19.01853943 C-32.35909234 20.42945095 -36.12760563 21.83770285 -39.89630508 23.24547195 C-43.87507978 24.73225935 -47.85291616 26.22155268 -51.83081055 27.71069336 C-56.80622511 29.57310562 -61.78172056 31.43530036 -66.75761414 33.2964325 C-78.44649204 37.66853216 -90.13239697 42.04850086 -101.81640625 46.43359375 C-103.43539202 47.04114372 -105.05438005 47.6486877 -106.67337036 48.25622559 C-112.8817509 50.58602211 -119.09010287 52.91589463 -125.29821777 55.24639893 C-126.02449057 55.51900417 -126.75076336 55.79160942 -127.49904442 56.07247543 C-128.94252778 56.61429561 -130.38598029 57.15619797 -131.82940102 57.69818497 C-135.28993773 58.99713432 -138.75138915 60.29352852 -142.21505737 61.58410645 C-148.13732574 63.79209644 -154.05349709 66.01041615 -159.94177341 68.30782795 C-161.84616954 69.04955429 -163.75308484 69.7843566 -165.66105652 70.51683044 C-167.9963827 71.41545 -170.326782 72.32702169 -172.65107727 73.25379944 C-173.68105331 73.64691818 -174.71102936 74.04003693 -175.7722168 74.44506836 C-176.66595505 74.79532578 -177.5596933 75.14558319 -178.48051453 75.50645447 C-181.61076319 76.11964325 -183.19571297 75.41575866 -186 74 C-186.33203125 71.87890625 -186.33203125 71.87890625 -186 69 C-184.29240888 66.77983353 -182.64884967 64.90600352 -180.6875 62.9375 C-179.57119208 61.7751452 -178.45531513 60.61237637 -177.33984375 59.44921875 C-176.77507324 58.86833496 -176.21030273 58.28745117 -175.62841797 57.68896484 C-173.28319666 55.2565449 -171.01879512 52.75361715 -168.75 50.25 C-164.04700622 45.12133379 -159.31495341 40.0203723 -154.5625 34.9375 C-153.53237793 33.82906738 -153.53237793 33.82906738 -152.48144531 32.69824219 C-151.82885742 32.0024707 -151.17626953 31.30669922 -150.50390625 30.58984375 C-149.92455322 29.96972412 -149.3452002 29.34960449 -148.74829102 28.71069336 C-144.37913417 24.43549688 -140.71676245 23.32522852 -134.70263672 22.48999023 C-133.86531132 22.36334803 -133.02798592 22.23670582 -132.16528702 22.10622597 C-130.34142854 21.8307823 -128.516833 21.56018592 -126.69162369 21.29384041 C-121.69985261 20.5628736 -116.7147587 19.78904541 -111.72949219 19.01513672 C-110.68557627 18.85354222 -109.64166035 18.69194773 -108.56611061 18.52545643 C-97.19766789 16.74815393 -85.88378032 14.69294275 -74.5703125 12.59765625 C-73.06127476 12.31914888 -73.06127476 12.31914888 -71.5217514 12.03501511 C-64.38813271 10.71817181 -57.25635103 9.39156098 -50.125 8.0625 C-42.85395587 6.70777241 -35.58226026 5.35673949 -28.30889511 4.01452446 C-25.44859669 3.48483853 -22.58954179 2.94878543 -19.73049927 2.41236877 C-17.99373056 2.09108713 -16.25690703 1.77010169 -14.52001953 1.44946289 C-13.74109848 1.30149765 -12.96217743 1.15353241 -12.15965271 1.00108337 C-8.07027415 0.25356469 -4.17438253 -0.34714042 0 0 Z " fill="#ED3438" transform="translate(640,13)"/>
<path d="M0 0 C0.63787949 -0.00136459 1.27575897 -0.00272919 1.93296814 -0.00413513 C4.15327447 -0.00623189 6.37345596 0.00038271 8.59375 0.0078125 C9.38484161 0.00903107 10.17593323 0.01024963 10.99099731 0.01150513 C40.49771547 0.06282241 70.00531785 0.57262346 99.50793266 1.03159237 C104.34264578 1.10660863 109.17739767 1.17755287 114.01220703 1.24609375 C119.69494122 1.32727868 125.3774208 1.41803924 131.05984497 1.51858521 C133.06896751 1.55284022 135.07814784 1.58386998 137.08737183 1.61154175 C139.79809269 1.64972658 142.50830326 1.69999455 145.21875 1.75390625 C146.00141739 1.76228516 146.78408478 1.77066406 147.59046936 1.77929688 C152.86502327 1.90408577 152.86502327 1.90408577 155.09375 4.1328125 C155.21875 6.7578125 155.21875 6.7578125 155.09375 9.1328125 C151.52637673 10.68579485 148.21311812 11.58645094 144.37649536 12.20852661 C143.23541321 12.39638733 142.09433105 12.58424805 140.91867065 12.77780151 C139.05458054 13.07559006 139.05458054 13.07559006 137.15283203 13.37939453 C135.82348919 13.59595409 134.49422678 13.81300793 133.16503906 14.03051758 C129.56253795 14.61844648 125.95889224 15.1990525 122.35494471 15.77804041 C118.57800992 16.38577502 114.80200374 16.99923063 111.02584839 17.61178589 C104.68310019 18.63971578 98.33958309 19.66279253 91.99560547 20.68310547 C84.67081819 21.86123516 77.34738039 23.04748346 70.02459824 24.23800766 C62.97052745 25.38461078 55.91546131 26.52497657 48.85995102 27.66268539 C45.86218005 28.14621863 42.86478643 28.63200032 39.8676796 29.11963272 C36.33412469 29.69428969 32.79973177 30.26348709 29.26463318 30.8285675 C27.35579314 31.13501211 25.44782228 31.4468557 23.53988647 31.75888062 C17.99534522 32.63994195 12.71024434 33.39366183 7.09375 33.1328125 C6.74594482 32.52284424 6.39813965 31.91287598 6.03979492 31.28442383 C4.45418661 28.5043926 2.8677264 25.72484842 1.28125 22.9453125 C0.73404297 21.98560547 0.18683594 21.02589844 -0.37695312 20.03710938 C-0.90869141 19.10576172 -1.44042969 18.17441406 -1.98828125 17.21484375 C-2.71881714 15.93444214 -2.71881714 15.93444214 -3.46411133 14.62817383 C-4.46152373 12.90233124 -5.50245036 11.20117864 -6.5769043 9.5222168 C-8.22191216 6.56543224 -8.13865368 4.46393198 -7.90625 1.1328125 C-5.17992813 -0.23034844 -3.05738263 0.00310529 0 0 Z " fill="#ED3438" transform="translate(489.90625,-0.1328125)"/>
<path d="M0 0 C-0.20483398 1.81494141 -0.20483398 1.81494141 -1 4 C-3.02758789 5.51708984 -3.02758789 5.51708984 -5.72265625 6.9609375 C-6.72385498 7.50766113 -7.72505371 8.05438477 -8.7565918 8.61767578 C-9.8475415 9.19759277 -10.93849121 9.77750977 -12.0625 10.375 C-14.36310814 11.6281379 -16.66255978 12.88340098 -18.9609375 14.140625 C-19.5489061 14.46044342 -20.13687469 14.78026184 -20.74266052 15.10977173 C-26.63335585 18.32124382 -32.41148197 21.71306646 -38.1875 25.125 C-46.75703782 30.16516196 -55.4095345 35.01374714 -64.16870117 39.71630859 C-68.48632305 42.04382288 -72.7506153 44.41878448 -76.94140625 46.96875 C-77.71363525 47.43764648 -78.48586426 47.90654297 -79.28149414 48.38964844 C-80.71126147 49.26635842 -82.13426329 50.15424742 -83.54858398 51.05566406 C-87.51625697 53.49125531 -90.34483354 54.87881391 -95 54 C-97.66796875 52.1015625 -97.66796875 52.1015625 -100.1875 49.625 C-102.75378986 47.14149368 -105.02281819 44.98478787 -108 43 C-107.73466492 41.11656189 -107.73466492 41.11656189 -107 39 C-105.38288879 37.9389801 -105.38288879 37.9389801 -103.24536133 37.13500977 C-102.43676666 36.82195389 -101.628172 36.50889801 -100.79507446 36.18635559 C-99.45211807 35.69385567 -99.45211807 35.69385567 -98.08203125 35.19140625 C-96.67115738 34.6520771 -96.67115738 34.6520771 -95.23178101 34.10185242 C-92.09740828 32.90729736 -88.9552177 31.73490609 -85.8125 30.5625 C-83.62936591 29.73627964 -81.44683853 28.90845456 -79.26489258 28.07910156 C-75.81800125 26.76902382 -72.37072149 25.46009949 -68.92124939 24.15682983 C-60.8393185 21.0992515 -52.78898197 17.96963962 -44.7546711 14.78973198 C-42.88096616 14.04842014 -41.00663513 13.30871589 -39.13206482 12.56959534 C-31.85676409 9.7013869 -31.85676409 9.7013869 -24.58828735 6.81594849 C-21.22292093 5.47651297 -17.85241602 4.15088857 -14.48046875 2.828125 C-13.47535248 2.42389816 -12.47023621 2.01967133 -11.43466187 1.60319519 C-10.04810898 1.06339775 -10.04810898 1.06339775 -8.63354492 0.51269531 C-7.83091721 0.19471985 -7.02828949 -0.12325562 -6.20133972 -0.4508667 C-3.73601861 -1.06585125 -2.37390205 -0.82517837 0 0 Z " fill="#ED3438" transform="translate(617,34)"/>
<path d="M0 0 C2.77633571 2.37004268 3.68438681 4.09824802 4.875 7.5 C5.06246513 11.24930261 3.88974537 13.6887963 1.8125 16.75 C-1.08122619 18.74567324 -3.52376587 18.88216156 -7 19 C-10.24364693 17.83718318 -12.28060504 16.94829336 -14.375 14.1875 C-15.55839073 10.04563245 -15.52785802 7.07970959 -13.625 3.1875 C-10.31222064 -1.27201068 -5.13481757 -0.73828556 0 0 Z " fill="#29ADE3" transform="translate(1002,226)"/>
</svg>
